<svg width="32" height="32" viewBox="0 0 32 32" fill="none" xmlns="http://www.w3.org/2000/svg">
<g clip-path="url(#clip0_21_6)">
<path d="M6.12539 6.64535C6.3668 6.61729 6.61128 6.65575 6.83241 6.75656C7.05354 6.85738 7.24291 7.01671 7.38006 7.21735C9.34806 10.096 11.7107 11.2933 14.3334 11.5653C14.4614 10.444 14.7641 9.33602 15.3334 8.36002C16.1681 6.92801 17.5254 5.87468 19.4641 5.48535C22.1441 4.94668 24.1841 5.91735 25.3667 7.10535L27.7561 6.65868C28.0061 6.61183 28.2643 6.63749 28.5002 6.73261C28.7361 6.82774 28.9399 6.98837 29.0875 7.19554C29.2351 7.40272 29.3204 7.6478 29.3332 7.90185C29.3461 8.15591 29.286 8.40834 29.1601 8.62935L26.8667 12.6587C27.0761 18.4733 25.4601 22.532 22.0147 25.328C20.1881 26.8107 17.5721 27.652 14.7014 27.912C11.8081 28.1733 8.53739 27.8573 5.28672 26.908C5.00898 26.827 4.76513 26.6578 4.59196 26.4261C4.41879 26.1943 4.32571 25.9125 4.32677 25.6232C4.32782 25.3339 4.42295 25.0527 4.5978 24.8222C4.77265 24.5917 5.01773 24.4243 5.29606 24.3454C6.93072 23.88 8.17606 23.4787 9.30006 22.776C7.70139 21.928 6.52406 20.8187 5.69073 19.5547C4.53339 17.7973 4.10406 15.8373 4.01872 14.0707C3.93339 12.304 4.18806 10.6667 4.45739 9.48668C4.61072 8.81335 4.78939 8.13868 5.03606 7.49335C5.12307 7.26587 5.27072 7.06656 5.463 6.91707C5.65527 6.76758 5.88348 6.6736 6.12539 6.64535Z" fill="white"/>
</g>
<defs>
<clipPath id="clip0_21_6">
<rect width="32" height="32" fill="white"/>
</clipPath>
</defs>
</svg>
